<svg xmlns="http://www.w3.org/2000/svg" width="1400" height="840" viewBox="0 0 1400 840">
  <defs>
    <linearGradient id="bg" x1="0" y1="0" x2="1" y2="1">
      <stop offset="0%" stop-color="#091A2A"/>
      <stop offset="100%" stop-color="#12324D"/>
    </linearGradient>
    <linearGradient id="card" x1="0" y1="0" x2="0" y2="1">
      <stop offset="0%" stop-color="#183C5D"/>
      <stop offset="100%" stop-color="#12314C"/>
    </linearGradient>
  </defs>

  <rect width="1400" height="840" fill="url(#bg)"/>
  <rect x="24" y="22" width="1352" height="796" rx="20" fill="#0F2B42" stroke="#4D7EA8"/>
  <rect x="24" y="22" width="1352" height="64" rx="20" fill="#173A59"/>

  <text x="700" y="63" text-anchor="middle" fill="#EAF3FF" font-size="26" font-family="Segoe UI, Arial, sans-serif" font-weight="700">Operations Dashboard and Digital Twin Control</text>

  <g transform="translate(48,108)">
    <rect x="0" y="0" width="286" height="684" rx="14" fill="#163654" stroke="#4D7EA8"/>
    <text x="24" y="42" fill="#D7E9FA" font-size="22" font-family="Segoe UI, Arial, sans-serif" font-weight="700">Control Zones</text>

    <rect x="20" y="66" width="246" height="54" rx="10" fill="#1A4469"/>
    <text x="36" y="99" fill="#EAF3FF" font-size="15" font-family="Segoe UI, Arial, sans-serif" font-weight="600">Line A Assembly</text>
    <rect x="20" y="130" width="246" height="54" rx="10" fill="#1A4469"/>
    <text x="36" y="163" fill="#EAF3FF" font-size="15" font-family="Segoe UI, Arial, sans-serif" font-weight="600">Line B Welding</text>
    <rect x="20" y="194" width="246" height="54" rx="10" fill="#23517C"/>
    <text x="36" y="227" fill="#EAF3FF" font-size="15" font-family="Segoe UI, Arial, sans-serif" font-weight="700">Line C Vision QA</text>
    <rect x="20" y="258" width="246" height="54" rx="10" fill="#1A4469"/>
    <text x="36" y="291" fill="#EAF3FF" font-size="15" font-family="Segoe UI, Arial, sans-serif" font-weight="600">Logistics Arm</text>

    <rect x="20" y="342" width="246" height="164" rx="12" fill="#102C46" stroke="#3B6C95"/>
    <text x="36" y="374" fill="#C8DCEF" font-size="15" font-family="Segoe UI, Arial, sans-serif" font-weight="700">Alert Board</text>
    <text x="36" y="404" fill="#FF4D4F" font-size="14" font-family="Segoe UI, Arial, sans-serif" font-weight="700">Critical: Bearing temp high C3</text>
    <text x="36" y="432" fill="#F5A623" font-size="14" font-family="Segoe UI, Arial, sans-serif" font-weight="700">Warning: Camera re-focus</text>
    <text x="36" y="460" fill="#22C55E" font-size="14" font-family="Segoe UI, Arial, sans-serif" font-weight="700">Healthy: Safety gate pass</text>

    <rect x="20" y="524" width="246" height="140" rx="12" fill="#102C46" stroke="#3B6C95"/>
    <text x="36" y="556" fill="#C8DCEF" font-size="15" font-family="Segoe UI, Arial, sans-serif" font-weight="700">Command Console</text>
    <rect x="36" y="574" width="210" height="32" rx="8" fill="#204D75"/>
    <text x="46" y="595" fill="#E3F1FF" font-size="12" font-family="Consolas, monospace" font-weight="600">/robot/c3 safe-stop --confirm</text>
    <rect x="36" y="618" width="120" height="28" rx="8" fill="#22C55E"/>
    <text x="72" y="637" fill="#052614" font-size="14" font-family="Segoe UI, Arial, sans-serif" font-weight="700">Execute</text>
  </g>

  <g transform="translate(356,108)">
    <rect x="0" y="0" width="1000" height="684" rx="14" fill="#12314C" stroke="#4D7EA8"/>

    <g transform="translate(20,20)">
      <rect x="0" y="0" width="306" height="126" rx="12" fill="url(#card)"/>
      <text x="20" y="34" fill="#BFD6EB" font-size="17" font-family="Segoe UI, Arial, sans-serif" font-weight="600">Throughput</text>
      <text x="20" y="84" fill="#ECF6FF" font-size="44" font-family="Segoe UI, Arial, sans-serif" font-weight="700">1,248</text>
      <text x="200" y="84" fill="#22C55E" font-size="20" font-family="Segoe UI, Arial, sans-serif" font-weight="700">+8.4%</text>

      <rect x="324" y="0" width="306" height="126" rx="12" fill="url(#card)"/>
      <text x="344" y="34" fill="#BFD6EB" font-size="17" font-family="Segoe UI, Arial, sans-serif" font-weight="600">Defect Rate</text>
      <text x="344" y="84" fill="#ECF6FF" font-size="44" font-family="Segoe UI, Arial, sans-serif" font-weight="700">1.7%</text>
      <text x="500" y="84" fill="#22C55E" font-size="20" font-family="Segoe UI, Arial, sans-serif" font-weight="700">Stable</text>

      <rect x="648" y="0" width="332" height="126" rx="12" fill="url(#card)"/>
      <text x="668" y="34" fill="#BFD6EB" font-size="17" font-family="Segoe UI, Arial, sans-serif" font-weight="600">Robot Uptime</text>
      <text x="668" y="84" fill="#ECF6FF" font-size="44" font-family="Segoe UI, Arial, sans-serif" font-weight="700">99.2%</text>
      <text x="846" y="84" fill="#22C55E" font-size="20" font-family="Segoe UI, Arial, sans-serif" font-weight="700">Healthy</text>
    </g>

    <g transform="translate(20,166)">
      <rect x="0" y="0" width="654" height="308" rx="12" fill="#173A5A"/>
      <text x="20" y="34" fill="#D7E9FA" font-size="17" font-family="Segoe UI, Arial, sans-serif" font-weight="600">Vision Defect Trend 24h</text>
      <polyline points="20,244 84,224 144,230 204,192 264,204 324,170 384,182 444,150 504,158 564,130 624,136" fill="none" stroke="#3AA7FF" stroke-width="4"/>
      <polyline points="20,258 84,238 144,244 204,216 264,224 324,198 384,206 444,188 504,190 564,176 624,180" fill="none" stroke="#22C55E" stroke-width="3"/>
      <line x1="20" y1="266" x2="624" y2="266" stroke="#3E6C93"/>
      <line x1="20" y1="214" x2="624" y2="214" stroke="#2E587D"/>
      <line x1="20" y1="162" x2="624" y2="162" stroke="#2E587D"/>
      <line x1="20" y1="110" x2="624" y2="110" stroke="#2E587D"/>
    </g>

    <g transform="translate(694,166)">
      <rect x="0" y="0" width="286" height="308" rx="12" fill="#173A5A"/>
      <text x="18" y="34" fill="#D7E9FA" font-size="17" font-family="Segoe UI, Arial, sans-serif" font-weight="600">Robot Fleet</text>
      <rect x="18" y="56" width="250" height="56" rx="10" fill="#1E4B72"/>
      <text x="34" y="90" fill="#EAF3FF" font-size="15" font-family="Segoe UI, Arial, sans-serif" font-weight="600">C3 Humanoid</text>
      <text x="194" y="90" fill="#22C55E" font-size="15" font-family="Segoe UI, Arial, sans-serif" font-weight="700">Active</text>
      <rect x="18" y="124" width="250" height="56" rx="10" fill="#1E4B72"/>
      <text x="34" y="158" fill="#EAF3FF" font-size="15" font-family="Segoe UI, Arial, sans-serif" font-weight="600">W2 Welder Arm</text>
      <text x="168" y="158" fill="#F5A623" font-size="14" font-family="Segoe UI, Arial, sans-serif" font-weight="700">Maintenance</text>
      <rect x="18" y="192" width="250" height="56" rx="10" fill="#1E4B72"/>
      <text x="34" y="226" fill="#EAF3FF" font-size="15" font-family="Segoe UI, Arial, sans-serif" font-weight="600">Q1 Inspector</text>
      <text x="194" y="226" fill="#22C55E" font-size="15" font-family="Segoe UI, Arial, sans-serif" font-weight="700">Active</text>
    </g>

    <g transform="translate(20,494)">
      <rect x="0" y="0" width="960" height="170" rx="12" fill="#173A5A"/>
      <text x="20" y="34" fill="#D7E9FA" font-size="17" font-family="Segoe UI, Arial, sans-serif" font-weight="600">Digital Twin Plant Map</text>
      <rect x="24" y="52" width="912" height="98" rx="10" fill="#102C46" stroke="#3E6C93"/>
      <rect x="50" y="80" width="136" height="42" rx="8" fill="#235C89"/>
      <rect x="210" y="80" width="136" height="42" rx="8" fill="#235C89"/>
      <rect x="370" y="80" width="136" height="42" rx="8" fill="#22C55E"/>
      <rect x="530" y="80" width="136" height="42" rx="8" fill="#235C89"/>
      <rect x="690" y="80" width="136" height="42" rx="8" fill="#F5A623"/>
      <circle cx="846" cy="101" r="10" fill="#22C55E"/>
      <circle cx="874" cy="101" r="10" fill="#3AA7FF"/>
      <circle cx="902" cy="101" r="10" fill="#FF4D4F"/>
    </g>
  </g>
</svg>
